<?xml version="1.0" encoding="UTF-8" standalone="no"?>
<!-- Created with Inkscape (http://www.inkscape.org/) -->

<svg
   xmlns:dc="http://purl.org/dc/elements/1.1/"
   xmlns:cc="http://creativecommons.org/ns#"
   xmlns:rdf="http://www.w3.org/1999/02/22-rdf-syntax-ns#"
   xmlns:svg="http://www.w3.org/2000/svg"
   xmlns="http://www.w3.org/2000/svg"
   xmlns:sodipodi="http://sodipodi.sourceforge.net/DTD/sodipodi-0.dtd"
   xmlns:inkscape="http://www.inkscape.org/namespaces/inkscape"
   version="1.1"
   id="svg4642"
   xml:space="preserve"
   width="420.47498"
   height="351.26099"
   viewBox="0 0 420.47498 351.26099"
   sodipodi:docname="valvula.svg"
   inkscape:version="0.92.1 r15371"><metadata
     id="metadata4648"><rdf:RDF><cc:Work
         rdf:about=""><dc:format>image/svg+xml</dc:format><dc:type
           rdf:resource="http://purl.org/dc/dcmitype/StillImage" /><dc:title></dc:title></cc:Work></rdf:RDF></metadata><defs
     id="defs4646"><clipPath
       clipPathUnits="userSpaceOnUse"
       id="clipPath4878"><path
         d="M -1.936e-6,453.12 H 612 V 707.76 H -1.936e-6 Z"
         id="path4876"
         inkscape:connector-curvature="0"
         style="clip-rule:evenodd" /></clipPath><clipPath
       clipPathUnits="userSpaceOnUse"
       id="clipPath4888"><path
         d="M 0,0 H 561.01 V 421.66 H 0 Z"
         id="path4886"
         inkscape:connector-curvature="0" /></clipPath><clipPath
       clipPathUnits="userSpaceOnUse"
       id="clipPath5428"><path
         d="m 73,46.072 h 435 v 343.54 H 73 Z"
         id="path5426"
         inkscape:connector-curvature="0"
         style="clip-rule:evenodd" /></clipPath><clipPath
       clipPathUnits="userSpaceOnUse"
       id="clipPath5446"><path
         d="m 73,46.072 h 435 v 343.54 H 73 Z"
         id="path5444"
         inkscape:connector-curvature="0"
         style="clip-rule:evenodd" /></clipPath><clipPath
       clipPathUnits="userSpaceOnUse"
       id="clipPath5824"><path
         d="M -2.02e-7,236.16 H 612 v 97.92 H -2.02e-7 Z"
         id="path5822"
         inkscape:connector-curvature="0"
         style="clip-rule:evenodd" /></clipPath></defs><sodipodi:namedview
     pagecolor="#ffffff"
     bordercolor="#666666"
     borderopacity="1"
     objecttolerance="10"
     gridtolerance="10"
     guidetolerance="10"
     inkscape:pageopacity="0"
     inkscape:pageshadow="2"
     inkscape:window-width="1600"
     inkscape:window-height="835"
     id="namedview4644"
     showgrid="false"
     inkscape:zoom="1.1558357"
     inkscape:cx="196.3353"
     inkscape:cy="167.72753"
     inkscape:window-x="1600"
     inkscape:window-y="0"
     inkscape:window-maximized="1"
     inkscape:current-layer="g4650"
     fit-margin-top="0"
     fit-margin-left="0"
     fit-margin-right="0"
     fit-margin-bottom="0" /><g
     id="g4650"
     inkscape:groupmode="layer"
     inkscape:label="ControlTanques"
     transform="matrix(1.3333333,0,0,-1.3333333,-198.12506,951.69236)"><g
       id="g8861"><path
         d="M 179.65599,481.04142 V 688.32344 H 443.85868 V 481.04142 H 179.65599"
         style="fill:none;stroke:#ffffff;stroke-width:0.08469614;stroke-linecap:butt;stroke-linejoin:round;stroke-miterlimit:10;stroke-dasharray:none;stroke-opacity:1"
         id="path4892"
         inkscape:connector-curvature="0" /><path
         inkscape:connector-curvature="0"
         id="path4896"
         style="fill:none;stroke:#000000;stroke-width:0.08469614;stroke-linecap:butt;stroke-linejoin:round;stroke-miterlimit:10;stroke-dasharray:0.08469614, 0.08469614;stroke-dashoffset:0;stroke-opacity:1"
         d="M 179.65599,481.04142 V 688.32344" /><path
         inkscape:connector-curvature="0"
         id="path4908"
         style="fill:none;stroke:#000000;stroke-width:0.08469614;stroke-linecap:butt;stroke-linejoin:round;stroke-miterlimit:10;stroke-dasharray:0.08469614, 0.08469614;stroke-dashoffset:0;stroke-opacity:1"
         d="M 206.37952,481.04142 V 688.32344" /><path
         inkscape:connector-curvature="0"
         id="path4920"
         style="fill:none;stroke:#000000;stroke-width:0.08469614;stroke-linecap:butt;stroke-linejoin:round;stroke-miterlimit:10;stroke-dasharray:0.08469614, 0.08469614;stroke-dashoffset:0;stroke-opacity:1"
         d="M 232.49192,481.04142 V 688.32344" /><path
         inkscape:connector-curvature="0"
         id="path4932"
         style="fill:none;stroke:#000000;stroke-width:0.08469614;stroke-linecap:butt;stroke-linejoin:round;stroke-miterlimit:10;stroke-dasharray:0.08469614, 0.08469614;stroke-dashoffset:0;stroke-opacity:1"
         d="M 259.22879,481.04142 V 688.32344" /><path
         inkscape:connector-curvature="0"
         id="path4944"
         style="fill:none;stroke:#000000;stroke-width:0.08469614;stroke-linecap:butt;stroke-linejoin:round;stroke-miterlimit:10;stroke-dasharray:0.08469614, 0.08469614;stroke-dashoffset:0;stroke-opacity:1"
         d="M 285.34119,481.04142 V 688.32344" /><path
         inkscape:connector-curvature="0"
         id="path4956"
         style="fill:none;stroke:#000000;stroke-width:0.08469614;stroke-linecap:butt;stroke-linejoin:round;stroke-miterlimit:10;stroke-dasharray:0.08469614, 0.08469614;stroke-dashoffset:0;stroke-opacity:1"
         d="M 312.05987,481.04142 V 688.32344" /><path
         inkscape:connector-curvature="0"
         id="path4968"
         style="fill:none;stroke:#000000;stroke-width:0.08469614;stroke-linecap:butt;stroke-linejoin:round;stroke-miterlimit:10;stroke-dasharray:0.08469614, 0.08469614;stroke-dashoffset:0;stroke-opacity:1"
         d="M 338.17833,481.04142 V 688.32344" /><path
         inkscape:connector-curvature="0"
         id="path4980"
         style="fill:none;stroke:#000000;stroke-width:0.08469614;stroke-linecap:butt;stroke-linejoin:round;stroke-miterlimit:10;stroke-dasharray:0.08469614, 0.08469614;stroke-dashoffset:0;stroke-opacity:1"
         d="M 364.29073,481.04142 V 688.32344" /><path
         inkscape:connector-curvature="0"
         id="path4992"
         style="fill:none;stroke:#000000;stroke-width:0.08469614;stroke-linecap:butt;stroke-linejoin:round;stroke-miterlimit:10;stroke-dasharray:0.08469614, 0.08469614;stroke-dashoffset:0;stroke-opacity:1"
         d="M 391.00941,481.04142 V 688.32344" /><path
         inkscape:connector-curvature="0"
         id="path5004"
         style="fill:none;stroke:#000000;stroke-width:0.08469614;stroke-linecap:butt;stroke-linejoin:round;stroke-miterlimit:10;stroke-dasharray:0.08469614, 0.08469614;stroke-dashoffset:0;stroke-opacity:1"
         d="M 417.12181,481.04142 V 688.32344" /><path
         inkscape:connector-curvature="0"
         id="path5016"
         style="fill:none;stroke:#000000;stroke-width:0.08469614;stroke-linecap:butt;stroke-linejoin:round;stroke-miterlimit:10;stroke-dasharray:0.08469614, 0.08469614;stroke-dashoffset:0;stroke-opacity:1"
         d="M 443.85868,481.04142 V 688.32344" /><path
         inkscape:connector-curvature="0"
         id="path5028"
         style="fill:none;stroke:#000000;stroke-width:0.08469614;stroke-linecap:butt;stroke-linejoin:round;stroke-miterlimit:10;stroke-dasharray:0.08469614, 0.08469614;stroke-dashoffset:0;stroke-opacity:1"
         d="M 179.65599,481.04142 H 443.85868" /><path
         inkscape:connector-curvature="0"
         id="path5040"
         style="fill:none;stroke:#000000;stroke-width:0.08469614;stroke-linecap:butt;stroke-linejoin:round;stroke-miterlimit:10;stroke-dasharray:0.08469614, 0.08469614;stroke-dashoffset:0;stroke-opacity:1"
         d="M 179.65599,507.11391 H 443.85868" /><path
         inkscape:connector-curvature="0"
         id="path5052"
         style="fill:none;stroke:#000000;stroke-width:0.08469614;stroke-linecap:butt;stroke-linejoin:round;stroke-miterlimit:10;stroke-dasharray:0.08469614, 0.08469614;stroke-dashoffset:0;stroke-opacity:1"
         d="M 179.65599,533.17433 H 443.85868" /><path
         inkscape:connector-curvature="0"
         id="path5064"
         style="fill:none;stroke:#000000;stroke-width:0.08469614;stroke-linecap:butt;stroke-linejoin:round;stroke-miterlimit:10;stroke-dasharray:0.08469614, 0.08469614;stroke-dashoffset:0;stroke-opacity:1"
         d="M 179.65599,559.2287 H 443.85868" /><path
         inkscape:connector-curvature="0"
         id="path5076"
         style="fill:none;stroke:#000000;stroke-width:0.08469614;stroke-linecap:butt;stroke-linejoin:round;stroke-miterlimit:10;stroke-dasharray:0.08469614, 0.08469614;stroke-dashoffset:0;stroke-opacity:1"
         d="M 179.65599,584.67941 H 443.85868" /><path
         inkscape:connector-curvature="0"
         id="path5088"
         style="fill:none;stroke:#000000;stroke-width:0.08469614;stroke-linecap:butt;stroke-linejoin:round;stroke-miterlimit:10;stroke-dasharray:0.08469614, 0.08469614;stroke-dashoffset:0;stroke-opacity:1"
         d="M 179.65599,610.73983 H 443.85868" /><path
         inkscape:connector-curvature="0"
         id="path5100"
         style="fill:none;stroke:#000000;stroke-width:0.08469614;stroke-linecap:butt;stroke-linejoin:round;stroke-miterlimit:10;stroke-dasharray:0.08469614, 0.08469614;stroke-dashoffset:0;stroke-opacity:1"
         d="M 179.65599,636.81231 H 443.85868" /><path
         inkscape:connector-curvature="0"
         id="path5112"
         style="fill:none;stroke:#000000;stroke-width:0.08469614;stroke-linecap:butt;stroke-linejoin:round;stroke-miterlimit:10;stroke-dasharray:0.08469614, 0.08469614;stroke-dashoffset:0;stroke-opacity:1"
         d="M 179.65599,662.87273 H 443.85868" /><path
         inkscape:connector-curvature="0"
         id="path5124"
         style="fill:none;stroke:#000000;stroke-width:0.08469614;stroke-linecap:butt;stroke-linejoin:round;stroke-miterlimit:10;stroke-dasharray:0.08469614, 0.08469614;stroke-dashoffset:0;stroke-opacity:1"
         d="M 179.65599,688.32344 H 443.85868" /><path
         d="M 179.65599,688.32344 H 443.85868"
         style="fill:none;stroke:#000000;stroke-width:0.08469614;stroke-linecap:butt;stroke-linejoin:round;stroke-miterlimit:10;stroke-dasharray:none;stroke-opacity:1"
         id="path5134"
         inkscape:connector-curvature="0" /><path
         d="M 179.65599,481.04142 H 443.85868"
         style="fill:none;stroke:#000000;stroke-width:0.08469614;stroke-linecap:butt;stroke-linejoin:round;stroke-miterlimit:10;stroke-dasharray:none;stroke-opacity:1"
         id="path5138"
         inkscape:connector-curvature="0" /><path
         d="M 443.85868,481.04142 V 688.32344"
         style="fill:none;stroke:#000000;stroke-width:0.08469614;stroke-linecap:butt;stroke-linejoin:round;stroke-miterlimit:10;stroke-dasharray:none;stroke-opacity:1"
         id="path5142"
         inkscape:connector-curvature="0" /><path
         d="M 179.65599,481.04142 V 688.32344"
         style="fill:none;stroke:#000000;stroke-width:0.08469614;stroke-linecap:butt;stroke-linejoin:round;stroke-miterlimit:10;stroke-dasharray:none;stroke-opacity:1"
         id="path5146"
         inkscape:connector-curvature="0" /><path
         d="M 179.65599,481.04142 H 443.85868"
         style="fill:none;stroke:#000000;stroke-width:0.08469614;stroke-linecap:butt;stroke-linejoin:round;stroke-miterlimit:10;stroke-dasharray:none;stroke-opacity:1"
         id="path5150"
         inkscape:connector-curvature="0" /><path
         d="M 179.65599,481.04142 V 688.32344"
         style="fill:none;stroke:#000000;stroke-width:0.08469614;stroke-linecap:butt;stroke-linejoin:round;stroke-miterlimit:10;stroke-dasharray:none;stroke-opacity:1"
         id="path5154"
         inkscape:connector-curvature="0" /><path
         d="m 179.65599,481.04142 v 3.03767"
         style="fill:none;stroke:#000000;stroke-width:0.08469614;stroke-linecap:butt;stroke-linejoin:round;stroke-miterlimit:10;stroke-dasharray:none;stroke-opacity:1"
         id="path5158"
         inkscape:connector-curvature="0" /><text
         y="-472.36984"
         x="177.45416"
         transform="scale(1.0021583,-0.99784635)"
         style="font-variant:normal;font-weight:normal;font-size:7.87916136px;font-family:Helvetica;-inkscape-font-specification:Helvetica;writing-mode:lr-tb;fill:#000000;fill-opacity:1;fill-rule:nonzero;stroke:none;stroke-width:0.60497242"
         id="text5168"><tspan
           style="stroke-width:0.60497242"
           x="177.45416"
           y="-472.36984"
           id="tspan5166">0</tspan></text>
<path
         d="m 206.37952,481.04142 v 3.03767"
         style="fill:none;stroke:#000000;stroke-width:0.08469614;stroke-linecap:butt;stroke-linejoin:round;stroke-miterlimit:10;stroke-dasharray:none;stroke-opacity:1"
         id="path5170"
         inkscape:connector-curvature="0" /><text
         y="-472.36984"
         x="201.70026"
         transform="scale(1.0021583,-0.99784635)"
         style="font-variant:normal;font-weight:normal;font-size:7.87916136px;font-family:Helvetica;-inkscape-font-specification:Helvetica;writing-mode:lr-tb;fill:#000000;fill-opacity:1;fill-rule:nonzero;stroke:none;stroke-width:0.60497242"
         id="text5180"><tspan
           style="stroke-width:0.60497242"
           x="201.70026 205.94978"
           y="-472.36984"
           sodipodi:role="line"
           id="tspan5178">10</tspan></text>
<path
         d="m 232.49192,481.04142 v 3.03767"
         style="fill:none;stroke:#000000;stroke-width:0.08469614;stroke-linecap:butt;stroke-linejoin:round;stroke-miterlimit:10;stroke-dasharray:none;stroke-opacity:1"
         id="path5182"
         inkscape:connector-curvature="0" /><text
         y="-472.36984"
         x="227.75641"
         transform="scale(1.0021583,-0.99784635)"
         style="font-variant:normal;font-weight:normal;font-size:7.87916136px;font-family:Helvetica;-inkscape-font-specification:Helvetica;writing-mode:lr-tb;fill:#000000;fill-opacity:1;fill-rule:nonzero;stroke:none;stroke-width:0.60497242"
         id="text5192"><tspan
           style="stroke-width:0.60497242"
           x="227.75641 232.00595"
           y="-472.36984"
           sodipodi:role="line"
           id="tspan5190">20</tspan></text>
<path
         d="m 259.22879,481.04142 v 3.03767"
         style="fill:none;stroke:#000000;stroke-width:0.08469614;stroke-linecap:butt;stroke-linejoin:round;stroke-miterlimit:10;stroke-dasharray:none;stroke-opacity:1"
         id="path5194"
         inkscape:connector-curvature="0" /><text
         y="-472.36984"
         x="254.41754"
         transform="scale(1.0021583,-0.99784635)"
         style="font-variant:normal;font-weight:normal;font-size:7.87916136px;font-family:Helvetica;-inkscape-font-specification:Helvetica;writing-mode:lr-tb;fill:#000000;fill-opacity:1;fill-rule:nonzero;stroke:none;stroke-width:0.60497242"
         id="text5204"><tspan
           style="stroke-width:0.60497242"
           x="254.41754 258.66708"
           y="-472.36984"
           sodipodi:role="line"
           id="tspan5202">30</tspan></text>
<path
         d="m 285.34119,481.04142 v 3.03767"
         style="fill:none;stroke:#000000;stroke-width:0.08469614;stroke-linecap:butt;stroke-linejoin:round;stroke-miterlimit:10;stroke-dasharray:none;stroke-opacity:1"
         id="path5206"
         inkscape:connector-curvature="0" /><text
         y="-472.36984"
         x="280.47369"
         transform="scale(1.0021583,-0.99784635)"
         style="font-variant:normal;font-weight:normal;font-size:7.87916136px;font-family:Helvetica;-inkscape-font-specification:Helvetica;writing-mode:lr-tb;fill:#000000;fill-opacity:1;fill-rule:nonzero;stroke:none;stroke-width:0.60497242"
         id="text5216"><tspan
           style="stroke-width:0.60497242"
           x="280.47369 284.72324"
           y="-472.36984"
           sodipodi:role="line"
           id="tspan5214">40</tspan></text>
<path
         d="m 312.05987,481.04142 v 3.03767"
         style="fill:none;stroke:#000000;stroke-width:0.08469614;stroke-linecap:butt;stroke-linejoin:round;stroke-miterlimit:10;stroke-dasharray:none;stroke-opacity:1"
         id="path5218"
         inkscape:connector-curvature="0" /><text
         y="-472.36984"
         x="307.1409"
         transform="scale(1.0021583,-0.99784635)"
         style="font-variant:normal;font-weight:normal;font-size:7.87916136px;font-family:Helvetica;-inkscape-font-specification:Helvetica;writing-mode:lr-tb;fill:#000000;fill-opacity:1;fill-rule:nonzero;stroke:none;stroke-width:0.60497242"
         id="text5228"><tspan
           style="stroke-width:0.60497242"
           x="307.1409 311.39044"
           y="-472.36984"
           sodipodi:role="line"
           id="tspan5226">50</tspan></text>
<path
         d="m 338.17833,481.04142 v 3.03767"
         style="fill:none;stroke:#000000;stroke-width:0.08469614;stroke-linecap:butt;stroke-linejoin:round;stroke-miterlimit:10;stroke-dasharray:none;stroke-opacity:1"
         id="path5230"
         inkscape:connector-curvature="0" /><text
         y="-472.36984"
         x="333.21521"
         transform="scale(1.0021583,-0.99784635)"
         style="font-variant:normal;font-weight:normal;font-size:7.87916136px;font-family:Helvetica;-inkscape-font-specification:Helvetica;writing-mode:lr-tb;fill:#000000;fill-opacity:1;fill-rule:nonzero;stroke:none;stroke-width:0.60497242"
         id="text5240"><tspan
           style="stroke-width:0.60497242"
           x="333.21521 337.46472"
           y="-472.36984"
           sodipodi:role="line"
           id="tspan5238">60</tspan></text>
<path
         d="m 364.29073,481.04142 v 3.03767"
         style="fill:none;stroke:#000000;stroke-width:0.08469614;stroke-linecap:butt;stroke-linejoin:round;stroke-miterlimit:10;stroke-dasharray:none;stroke-opacity:1"
         id="path5242"
         inkscape:connector-curvature="0" /><text
         y="-472.36984"
         x="359.27136"
         transform="scale(1.0021583,-0.99784635)"
         style="font-variant:normal;font-weight:normal;font-size:7.87916136px;font-family:Helvetica;-inkscape-font-specification:Helvetica;writing-mode:lr-tb;fill:#000000;fill-opacity:1;fill-rule:nonzero;stroke:none;stroke-width:0.60497242"
         id="text5252"><tspan
           style="stroke-width:0.60497242"
           x="359.27136 363.5209"
           y="-472.36984"
           sodipodi:role="line"
           id="tspan5250">70</tspan></text>
<path
         d="m 391.00941,481.04142 v 3.03767"
         style="fill:none;stroke:#000000;stroke-width:0.08469614;stroke-linecap:butt;stroke-linejoin:round;stroke-miterlimit:10;stroke-dasharray:none;stroke-opacity:1"
         id="path5254"
         inkscape:connector-curvature="0" /><text
         y="-472.36984"
         x="385.9325"
         transform="scale(1.0021583,-0.99784635)"
         style="font-variant:normal;font-weight:normal;font-size:7.87916136px;font-family:Helvetica;-inkscape-font-specification:Helvetica;writing-mode:lr-tb;fill:#000000;fill-opacity:1;fill-rule:nonzero;stroke:none;stroke-width:0.60497242"
         id="text5264"><tspan
           style="stroke-width:0.60497242"
           x="385.9325 390.18204"
           y="-472.36984"
           sodipodi:role="line"
           id="tspan5262">80</tspan></text>
<path
         d="m 417.12181,481.04142 v 3.03767"
         style="fill:none;stroke:#000000;stroke-width:0.08469614;stroke-linecap:butt;stroke-linejoin:round;stroke-miterlimit:10;stroke-dasharray:none;stroke-opacity:1"
         id="path5266"
         inkscape:connector-curvature="0" /><text
         y="-472.36984"
         x="411.98868"
         transform="scale(1.0021583,-0.99784635)"
         style="font-variant:normal;font-weight:normal;font-size:7.87916136px;font-family:Helvetica;-inkscape-font-specification:Helvetica;writing-mode:lr-tb;fill:#000000;fill-opacity:1;fill-rule:nonzero;stroke:none;stroke-width:0.60497242"
         id="text5276"><tspan
           style="stroke-width:0.60497242"
           x="411.98868 416.23819"
           y="-472.36984"
           sodipodi:role="line"
           id="tspan5274">90</tspan></text>
<path
         d="m 443.85868,481.04142 v 3.03767"
         style="fill:none;stroke:#000000;stroke-width:0.08469614;stroke-linecap:butt;stroke-linejoin:round;stroke-miterlimit:10;stroke-dasharray:none;stroke-opacity:1"
         id="path5278"
         inkscape:connector-curvature="0" /><text
         y="-472.36984"
         x="436.84094"
         transform="scale(1.0021583,-0.99784635)"
         style="font-variant:normal;font-weight:normal;font-size:7.87916136px;font-family:Helvetica;-inkscape-font-specification:Helvetica;writing-mode:lr-tb;fill:#000000;fill-opacity:1;fill-rule:nonzero;stroke:none;stroke-width:0.60497242"
         id="text5288"><tspan
           style="stroke-width:0.60497242"
           x="436.84094 441.09048 445.34"
           y="-472.36984"
           sodipodi:role="line"
           id="tspan5286">100</tspan></text>
<path
         d="m 179.65599,481.04142 h 3.04594"
         style="fill:none;stroke:#000000;stroke-width:0.08469614;stroke-linecap:butt;stroke-linejoin:round;stroke-miterlimit:10;stroke-dasharray:none;stroke-opacity:1"
         id="path5290"
         inkscape:connector-curvature="0" /><text
         y="-479.04996"
         x="173.20483"
         transform="scale(1.0021583,-0.99784635)"
         style="font-variant:normal;font-weight:normal;font-size:7.87916136px;font-family:Helvetica;-inkscape-font-specification:Helvetica;writing-mode:lr-tb;fill:#000000;fill-opacity:1;fill-rule:nonzero;stroke:none;stroke-width:0.60497242"
         id="text5300"><tspan
           style="stroke-width:0.60497242"
           x="173.20483"
           y="-479.04996"
           id="tspan5298">0</tspan></text>
<path
         d="m 179.65599,507.11391 h 3.04594"
         style="fill:none;stroke:#000000;stroke-width:0.08469614;stroke-linecap:butt;stroke-linejoin:round;stroke-miterlimit:10;stroke-dasharray:none;stroke-opacity:1"
         id="path5302"
         inkscape:connector-curvature="0" /><text
         y="-505.16418"
         x="173.20483"
         transform="scale(1.0021583,-0.99784635)"
         style="font-variant:normal;font-weight:normal;font-size:7.87916136px;font-family:Helvetica;-inkscape-font-specification:Helvetica;writing-mode:lr-tb;fill:#000000;fill-opacity:1;fill-rule:nonzero;stroke:none;stroke-width:0.60497242"
         id="text5312"><tspan
           style="stroke-width:0.60497242"
           x="173.20483"
           y="-505.16418"
           id="tspan5310">1</tspan></text>
<path
         d="m 179.65599,533.17433 h 3.04594"
         style="fill:none;stroke:#000000;stroke-width:0.08469614;stroke-linecap:butt;stroke-linejoin:round;stroke-miterlimit:10;stroke-dasharray:none;stroke-opacity:1"
         id="path5314"
         inkscape:connector-curvature="0" /><text
         y="-531.276"
         x="173.20483"
         transform="scale(1.0021583,-0.99784635)"
         style="font-variant:normal;font-weight:normal;font-size:7.87916136px;font-family:Helvetica;-inkscape-font-specification:Helvetica;writing-mode:lr-tb;fill:#000000;fill-opacity:1;fill-rule:nonzero;stroke:none;stroke-width:0.60497242"
         id="text5324"><tspan
           style="stroke-width:0.60497242"
           x="173.20483"
           y="-531.276"
           id="tspan5322">2</tspan></text>
<path
         d="m 179.65599,559.2287 h 3.04594"
         style="fill:none;stroke:#000000;stroke-width:0.08469614;stroke-linecap:butt;stroke-linejoin:round;stroke-miterlimit:10;stroke-dasharray:none;stroke-opacity:1"
         id="path5326"
         inkscape:connector-curvature="0" /><text
         y="-557.40479"
         x="173.20483"
         transform="scale(1.0021583,-0.99784635)"
         style="font-variant:normal;font-weight:normal;font-size:7.87916136px;font-family:Helvetica;-inkscape-font-specification:Helvetica;writing-mode:lr-tb;fill:#000000;fill-opacity:1;fill-rule:nonzero;stroke:none;stroke-width:0.60497242"
         id="text5336"><tspan
           style="stroke-width:0.60497242"
           x="173.20483"
           y="-557.40479"
           id="tspan5334">3</tspan></text>
<path
         d="m 179.65599,584.67941 h 3.04594"
         style="fill:none;stroke:#000000;stroke-width:0.08469614;stroke-linecap:butt;stroke-linejoin:round;stroke-miterlimit:10;stroke-dasharray:none;stroke-opacity:1"
         id="path5338"
         inkscape:connector-curvature="0" /><text
         y="-582.91644"
         x="173.20483"
         transform="scale(1.0021583,-0.99784635)"
         style="font-variant:normal;font-weight:normal;font-size:7.87916136px;font-family:Helvetica;-inkscape-font-specification:Helvetica;writing-mode:lr-tb;fill:#000000;fill-opacity:1;fill-rule:nonzero;stroke:none;stroke-width:0.60497242"
         id="text5348"><tspan
           style="stroke-width:0.60497242"
           x="173.20483"
           y="-582.91644"
           id="tspan5346">4</tspan></text>
<path
         d="m 179.65599,610.73983 h 3.04594"
         style="fill:none;stroke:#000000;stroke-width:0.08469614;stroke-linecap:butt;stroke-linejoin:round;stroke-miterlimit:10;stroke-dasharray:none;stroke-opacity:1"
         id="path5350"
         inkscape:connector-curvature="0" /><text
         y="-609.0271"
         x="173.20483"
         transform="scale(1.0021583,-0.99784635)"
         style="font-variant:normal;font-weight:normal;font-size:7.87916136px;font-family:Helvetica;-inkscape-font-specification:Helvetica;writing-mode:lr-tb;fill:#000000;fill-opacity:1;fill-rule:nonzero;stroke:none;stroke-width:0.60497242"
         id="text5360"><tspan
           style="stroke-width:0.60497242"
           x="173.20483"
           y="-609.0271"
           id="tspan5358">5</tspan></text>
<path
         d="m 179.65599,636.81231 h 3.04594"
         style="fill:none;stroke:#000000;stroke-width:0.08469614;stroke-linecap:butt;stroke-linejoin:round;stroke-miterlimit:10;stroke-dasharray:none;stroke-opacity:1"
         id="path5362"
         inkscape:connector-curvature="0" /><text
         y="-635.14374"
         x="173.20483"
         transform="scale(1.0021583,-0.99784635)"
         style="font-variant:normal;font-weight:normal;font-size:7.87916136px;font-family:Helvetica;-inkscape-font-specification:Helvetica;writing-mode:lr-tb;fill:#000000;fill-opacity:1;fill-rule:nonzero;stroke:none;stroke-width:0.60497242"
         id="text5372"><tspan
           style="stroke-width:0.60497242"
           x="173.20483"
           y="-635.14374"
           id="tspan5370">6</tspan></text>
<path
         d="m 179.65599,662.87273 h 3.04594"
         style="fill:none;stroke:#000000;stroke-width:0.08469614;stroke-linecap:butt;stroke-linejoin:round;stroke-miterlimit:10;stroke-dasharray:none;stroke-opacity:1"
         id="path5374"
         inkscape:connector-curvature="0" /><text
         y="-661.25433"
         x="173.20483"
         transform="scale(1.0021583,-0.99784635)"
         style="font-variant:normal;font-weight:normal;font-size:7.87916136px;font-family:Helvetica;-inkscape-font-specification:Helvetica;writing-mode:lr-tb;fill:#000000;fill-opacity:1;fill-rule:nonzero;stroke:none;stroke-width:0.60497242"
         id="text5384"><tspan
           style="stroke-width:0.60497242"
           x="173.20483"
           y="-661.25433"
           id="tspan5382">7</tspan></text>
<text
         y="-686.76605"
         x="173.20483"
         transform="scale(1.0021583,-0.99784635)"
         style="font-variant:normal;font-weight:normal;font-size:7.87916136px;font-family:Helvetica;-inkscape-font-specification:Helvetica;writing-mode:lr-tb;fill:#000000;fill-opacity:1;fill-rule:nonzero;stroke:none;stroke-width:0.60497242"
         id="text5396"><tspan
           style="stroke-width:0.60497242"
           x="173.20483"
           y="-686.76605"
           id="tspan5394">8</tspan></text>
<text
         y="-693.44495"
         x="179.26907"
         transform="scale(1.0021583,-0.99784635)"
         style="font-variant:normal;font-weight:normal;font-size:7.87916136px;font-family:Helvetica;-inkscape-font-specification:Helvetica;writing-mode:lr-tb;fill:#000000;fill-opacity:1;fill-rule:nonzero;stroke:none;stroke-width:0.60497242"
         id="text5400"><tspan
           style="stroke-width:0.60497242"
           x="179.26907 183.50806 185.91908 190.16595"
           y="-693.44495"
           sodipodi:role="line"
           id="tspan5398">x 10</tspan></text>
<text
         y="-698.91388"
         x="194.42303"
         transform="scale(1.0021583,-0.99784635)"
         style="font-variant:normal;font-weight:normal;font-size:5.45951319px;font-family:Helvetica;-inkscape-font-specification:Helvetica;writing-mode:lr-tb;fill:#000000;fill-opacity:1;fill-rule:nonzero;stroke:none;stroke-width:0.60497242"
         id="text5404"><tspan
           style="stroke-width:0.60497242"
           x="194.42303 196.23796"
           y="-698.91388"
           sodipodi:role="line"
           id="tspan5402">-4</tspan></text>
<path
         d="M 179.65599,688.32344 H 443.85868"
         style="fill:none;stroke:#000000;stroke-width:0.08469614;stroke-linecap:butt;stroke-linejoin:round;stroke-miterlimit:10;stroke-dasharray:none;stroke-opacity:1"
         id="path5406"
         inkscape:connector-curvature="0" /><path
         d="M 179.65599,481.04142 H 443.85868"
         style="fill:none;stroke:#000000;stroke-width:0.08469614;stroke-linecap:butt;stroke-linejoin:round;stroke-miterlimit:10;stroke-dasharray:none;stroke-opacity:1"
         id="path5410"
         inkscape:connector-curvature="0" /><path
         d="M 443.85868,481.04142 V 688.32344"
         style="fill:none;stroke:#000000;stroke-width:0.08469614;stroke-linecap:butt;stroke-linejoin:round;stroke-miterlimit:10;stroke-dasharray:none;stroke-opacity:1"
         id="path5414"
         inkscape:connector-curvature="0" /><path
         d="M 179.65599,481.04142 V 688.32344"
         style="fill:none;stroke:#000000;stroke-width:0.08469614;stroke-linecap:butt;stroke-linejoin:round;stroke-miterlimit:10;stroke-dasharray:none;stroke-opacity:1"
         id="path5418"
         inkscape:connector-curvature="0" /><g
         transform="matrix(0.60627816,0,0,0.60366955,135.93,453.17)"
         clip-path="url(#clipPath5428)"
         id="g5424"><path
           inkscape:connector-curvature="0"
           id="path5430"
           style="fill:none;stroke:#000000;stroke-width:2;stroke-linecap:butt;stroke-linejoin:round;stroke-miterlimit:10;stroke-dasharray:6, 2;stroke-dashoffset:0;stroke-opacity:1"
           d="m 74.122,63.246 h -1 1 l 1,1.001 h 1 l 1.024,1.002 h 1 l 1,1.001 h 1 l 1,1.026 h 1 l 1,1.002 h 1 l 1,1.002 h 1 l 1,1.001 h 1 1 l 1.025,1.002 h 1 1 l 1,1.001 h 1 1 l 1,1.002 h 1 1 l 1,1.001 h 0.999 1 l 1,1.002 h 1 1.03 1 l 1,1.002 h 1 1 l 1,1.026 h 1 1 1 l 1,1.001 h 1 1 1 l 1,1.002 h 1.02 1 l 1,1.001 h 1 1 1 l 1,1.002 h 1 1 l 1,1.001 h 1 1 l 1,1.002 h 1 1.02 l 1,1.002 h 1 1 l 1,1.001 h 1 1 l 1,1.002 h 1 1 l 1,1.001 h 1 l 1,1.026 h 1 l 1.03,1.002 h 1 l 1,1.002 h 1 1 l 1,1.001 h 1 l 1,1.002 h 1 l 1,1.001 h 1 l 1,1.002 1,1.001 h 1 1.02 l 1,1.002 1,1.002 h 1 l 1,1.026 h 1 l 1,1.001 1,1 h 1 l 1,1 h 1 l 1,1 1,1.01 h 1.03 l 1,1 1,1 1,1 h 1 l 1,1 1,1.03 h 1 l 1,1 1,1 1,1 1,1.01 h 1 l 1,1 1.02,1 1,1 h 1 l 1,1 1,1 1,1.03 1,1 1,1 1,1 h 1 l 2,2.01 h -1 1" /></g><path
         inkscape:connector-curvature="0"
         id="path5434"
         style="fill:none;stroke:#000000;stroke-width:1.20994484;stroke-linecap:butt;stroke-linejoin:round;stroke-miterlimit:10;stroke-dasharray:3.62983469, 1.2099449;stroke-dashoffset:0;stroke-opacity:1"
         d="m 256.17921,527.71715 0.60628,0.60367 0.60628,0.60367 0.62446,0.60367 0.60628,0.60367 0.60628,0.60367 0.60628,0.62178 0.60628,0.60367 0.60627,0.60367 0.60628,0.60971 0.60628,0.60367 h 0.60628 l 0.60628,0.60366 1.21255,1.20734 h -0.60628 0.60628 l 0.60628,0.60367 1.22468,1.22545 v 0.60367 h 0.60628 l 1.21256,1.21338 v 0.60367 l 0.60628,0.60367 0.60627,0.60367 0.60628,0.60367 0.60628,0.60367 0.60628,0.60367 0.60628,0.62177 0.60627,0.60367 0.60628,0.60367 0.60628,0.60971 0.60628,0.60367 0.6184,0.60367 1.21256,1.20734 v 0.60367 l 0.60628,0.6097 0.60628,0.61575 0.60627,0.60367 0.60628,0.60367 0.60628,0.6097 0.60628,0.60367 0.60628,0.60367 0.60627,0.60367 1.21256,1.20734 v 0.60971 l 0.60628,0.60367 0.62447,0.61574 0.60627,0.60367 0.60628,0.6097 0.60628,0.60367 1.21256,1.20734 v 0.60367 l 0.60627,0.60367 0.60628,0.60971 0.60628,0.60367 0.60628,0.61574 1.21256,1.21338 v 0.60367 l 0.60627,0.60367 0.61841,0.60367 0.60628,0.60367 0.60627,0.60366 0.60628,0.60971 1.21256,1.21941 v 0.60367 l 0.60628,0.60971 0.60627,0.60367 0.60628,0.60367 0.60628,0.60367 1.21256,1.20734 v 0.6097 l 0.60627,0.60367 0.60628,0.61575 0.62447,0.6097 0.60628,0.60367 0.60628,0.60367 1.21255,1.20734 v 0.60367 l 0.60628,0.60367 0.60628,0.60971 0.60628,0.60366 0.60627,0.61575 0.60628,0.6097 0.60628,0.60367 0.60628,0.60367 0.60628,0.60367 1.22468,1.20734 v 0.60367 l 0.60628,0.60971 0.60628,0.60367 0.60627,0.60367 0.60628,0.62178 0.60628,0.60367 0.60628,0.60367 0.60628,0.60367 0.60627,0.60366 1.21256,1.20734 h -0.60628 0.60628 l 0.60628,0.60971 1.21256,1.20734 v 0.62178 l 0.62446,0.60367 0.60628,0.60367 0.60628,0.60367 0.60628,0.60367 0.60627,0.60367 0.60628,0.6097 0.60628,0.60367 0.60628,0.60367 0.60628,0.60367 0.60628,0.62178 0.60627,0.60367 0.60628,0.60367 0.60628,0.60367 h 0.60628 l 0.6184,0.60367 0.60628,0.60367 0.60628,0.60971 0.60628,0.60366 0.60627,0.60367 0.60628,0.60367 0.60628,0.62178 0.60628,0.60367 0.60628,0.60367 0.60628,0.60367 0.60627,0.60367 h 0.60628" /><path
         inkscape:connector-curvature="0"
         id="path5438"
         style="fill:none;stroke:#000000;stroke-width:1.20994484;stroke-linecap:butt;stroke-linejoin:round;stroke-miterlimit:10;stroke-dasharray:3.62983469, 1.2099449;stroke-dashoffset:0;stroke-opacity:1"
         d="m 332.09736,607.71544 0.60628,0.60367 0.60628,0.60971 0.62446,0.60367 0.60628,0.60367 h 0.60628 l 0.60628,0.60367 0.60628,0.60367 0.60628,0.62178 0.60627,0.60366 0.60628,0.60367 h 0.60628 l 0.60628,0.60367 0.60628,0.60367 h 0.60627 l 0.60628,0.60971 0.61841,0.60367 0.60627,0.60367 h 0.60628 l 0.60628,0.60367 0.60628,0.60367 h 0.60628 l 0.60627,0.62178 0.60628,0.60367 h 0.60628 l 0.60628,0.60367 0.60628,0.60367 h 0.60628 l 0.60627,0.60367 h 0.60628 l 0.61841,0.6097 0.60627,0.60367 h 0.60628 l 0.60628,0.60367 h 0.60628 l 0.60628,0.60367 h 0.60627 l 0.60628,0.60367 h 0.60628 l 0.60628,0.62178 h 0.60628 l 0.60628,0.60367 h 0.60627 l 0.60628,0.60367 h 0.62447 l 0.60628,0.60367 h 0.60627 0.60628 l 0.60628,0.60367 h 0.60628 l 0.60628,0.6097 h 0.60628 l 0.60627,0.60367 h 0.60628 0.60628 l 0.60628,0.60367 h 0.60628 0.60627 0.61841 l 0.60628,0.60367 h 0.60627 0.60628 l 0.60628,0.60367 h 0.60628 0.60628 l 0.60628,0.62178 h 0.60627 0.60628 0.60628 0.60628 l 0.60628,0.60367 h 0.60627 0.62447 0.60628 0.60628 l 0.60628,0.60367 h 0.60627 0.60628 0.60628 0.60628 0.60628 0.60627 l 0.60628,0.60367 h 0.60628 0.60628 0.60628 0.6184 0.60628 0.60628 0.60627 0.60628 l 0.60628,0.60367 h 0.60628 0.60628 0.60628 0.60627 0.60628 0.60628 0.60628 0.62446 0.60628 0.60628 0.60628 0.60628 0.60628 0.60627 0.60628 0.60628 0.60628 0.60628 0.60627 0.60628 0.60628 0.6184 0.60628 0.60628 0.60628 0.60628 0.60628 0.60627 0.60628 0.60628 0.60628 0.60628 0.60627 0.60628 l 0.60628,-0.60367 h 0.6184" /><g
         transform="matrix(0.60627816,0,0,0.60366955,135.93,453.17)"
         clip-path="url(#clipPath5446)"
         id="g5442"><path
           inkscape:connector-curvature="0"
           id="path5448"
           style="fill:none;stroke:#000000;stroke-width:2;stroke-linecap:butt;stroke-linejoin:round;stroke-miterlimit:10;stroke-dasharray:6, 2;stroke-dashoffset:0;stroke-opacity:1"
           d="m 450.8,296.17 h 1 1 1 1 1 1 1 1 1 1 1 1 1 1.03 1 1 1 1 1 1 1 l 1,1 h 1 1 1 1 1 1.02 1 1 1 1 l 1,1.01 h 1 1 1 1 1 l 1,1 h 1 1 1.03 l 1,1 h 1 1 1 l 1,1 h 1 1 l 1,1 h 1 1 l 1,1 h 1 1.02 l 1,1.03 h 1" /></g><text
         y="166.55014"
         x="564.6947"
         transform="matrix(0,0.99784635,1.0021583,0,0,0)"
         style="font-variant:normal;font-weight:normal;font-size:7.87916136px;font-family:Helvetica;-inkscape-font-specification:Helvetica;writing-mode:lr-tb;fill:#000000;fill-opacity:1;fill-rule:nonzero;stroke:none;stroke-width:0.60497242"
         id="text5800"><tspan
           style="stroke-width:0.60497242"
           x="564.6947 569.54041 571.34473 575.59155 577.39587 581.64276 584.05377 586.47272"
           y="166.55014"
           sodipodi:role="line"
           id="tspan5798">Flujo (m</tspan></text>
<text
         y="163.51015"
         x="593.23126"
         transform="matrix(0,0.99784635,1.0021583,0,0,0)"
         style="font-variant:normal;font-weight:normal;font-size:6.66921616px;font-family:Helvetica;-inkscape-font-specification:Helvetica;writing-mode:lr-tb;fill:#000000;fill-opacity:1;fill-rule:nonzero;stroke:none;stroke-width:0.60497242"
         id="text5804"><tspan
           style="stroke-width:0.60497242"
           x="593.23126"
           y="163.51015"
           id="tspan5802">3</tspan></text>
<text
         y="166.55014"
         x="596.87921"
         transform="matrix(0,0.99784635,1.0021583,0,0,0)"
         style="font-variant:normal;font-weight:normal;font-size:7.87916136px;font-family:Helvetica;-inkscape-font-specification:Helvetica;writing-mode:lr-tb;fill:#000000;fill-opacity:1;fill-rule:nonzero;stroke:none;stroke-width:0.60497242"
         id="text5808"><tspan
           style="stroke-width:0.60497242"
           x="596.87921 599.29022 603.52924"
           y="166.55014"
           sodipodi:role="line"
           id="tspan5806">/s)</tspan></text>
<text
         y="-462.03995"
         x="274.42398"
         transform="scale(1.0021583,-0.99784635)"
         style="font-variant:normal;font-weight:normal;font-size:7.87916136px;font-family:Helvetica;-inkscape-font-specification:Helvetica;writing-mode:lr-tb;fill:#000000;fill-opacity:1;fill-rule:nonzero;stroke:none;stroke-width:0.60497242"
         id="text5812"><tspan
           style="stroke-width:0.60497242"
           x="274.42398 279.87637 284.12323 288.36221 290.16653 294.40555 296.20987 300.45673 304.70358 307.11462 312.56699 316.81387 318.61819 321.6438 325.89066 327.69498 331.94186 334.35287 336.77179 344.03638"
           y="-462.03995"
           sodipodi:role="line"
           id="tspan5810">Posicion Valvula (%)</tspan></text>
<text
         y="-695.883"
         x="243.51595"
         transform="scale(1.0021583,-0.99784635)"
         style="font-variant:normal;font-weight:normal;font-size:7.87916136px;font-family:Helvetica;-inkscape-font-specification:Helvetica;writing-mode:lr-tb;fill:#000000;fill-opacity:1;fill-rule:nonzero;stroke:none;stroke-width:0.60497242"
         id="text5816"><tspan
           y="-688.72083"
           style="stroke-width:0.60497242"
           x="243.51595"
           sodipodi:role="line"
           id="tspan5814" /></text>
<rect
         transform="scale(1,-1)"
         y="-713.76929"
         x="148.5938"
         height="263.44574"
         width="315.35623"
         id="rect8748"
         style="fill:none;fill-opacity:1;stroke:none;stroke-width:0.66345304;stroke-miterlimit:4;stroke-dasharray:none;stroke-dashoffset:0;stroke-opacity:1" /></g></g></svg>